<?xml version="1.0" encoding="iso-8859-1"?>
<!-- Generator: Adobe Illustrator 19.0.0, SVG Export Plug-In . SVG Version: 6.00 Build 0)  -->
<svg version="1.1" id="Capa_1" xmlns="http://www.w3.org/2000/svg" xmlns:xlink="http://www.w3.org/1999/xlink" x="0px" y="0px"
	 viewBox="0 0 512 512" style="enable-background:new 0 0 512 512;" xml:space="preserve">
<rect x="196.27" y="8.533" style="fill:#FFE477;" width="290.13" height="238.93"/>
<g>
	<circle style="fill:#FFEB99;" cx="93.87" cy="85.33" r="34.13"/>
	<circle style="fill:#FFEB99;" cx="409.6" cy="366.93" r="25.6"/>
</g>
<path style="fill:#78B9EB;" d="M366.934,452.267v51.2h85.333v-51.2c0-18.85-15.283-34.133-34.133-34.133h-17.067
	C382.217,418.133,366.934,433.417,366.934,452.267z"/>
<circle style="fill:#FFEB99;" cx="298.671" cy="366.93" r="25.6"/>
<path style="fill:#78B9EB;" d="M256,452.267v51.2h85.333v-51.2c0-18.85-15.283-34.133-34.133-34.133h-17.067
	C271.283,418.133,256,433.417,256,452.267z"/>
<circle style="fill:#FFEB99;" cx="179.2" cy="366.93" r="25.6"/>
<path style="fill:#78B9EB;" d="M170.667,418.133c-18.85,0-34.133,15.283-34.133,34.133v51.2h85.333v-51.2
	c0-18.85-15.283-34.133-34.133-34.133H170.667z"/>
<circle style="fill:#FFEB99;" cx="68.27" cy="366.93" r="25.6"/>
<g>
	<path style="fill:#78B9EB;" d="M25.6,452.267v51.2h85.333v-51.2c0-18.85-15.283-34.133-34.133-34.133H59.733
		C40.883,418.133,25.6,433.417,25.6,452.267z"/>
	<path style="fill:#78B9EB;" d="M68.267,145.067c-18.85,0-34.133,15.283-34.133,34.133v85.333H153.6V179.2H256v-34.133H68.267z"/>
</g>
<path style="fill:#FFCD00;" d="M452.267,85.333H409.6V42.667c-23.561,0-42.667,19.106-42.667,42.667S386.039,128,409.6,128
	S452.267,108.894,452.267,85.333z"/>
<path style="fill:#FF9811;" d="M452.267,85.333c0-23.561-19.106-42.667-42.667-42.667v42.667H452.267z"/>
<g>
	<path style="fill:#3F3F3F;" d="M93.867,128c23.561,0,42.667-19.106,42.667-42.667s-19.106-42.667-42.667-42.667
		S51.2,61.773,51.2,85.333C51.226,108.885,70.315,127.974,93.867,128z M93.867,59.733c14.14,0,25.6,11.46,25.6,25.6
		s-11.46,25.6-25.6,25.6s-25.6-11.46-25.6-25.6S79.727,59.733,93.867,59.733z"/>
	<path style="fill:#3F3F3F;" d="M443.733,366.933c0-18.85-15.283-34.133-34.133-34.133s-34.133,15.283-34.133,34.133
		s15.283,34.133,34.133,34.133C428.451,401.067,443.733,385.783,443.733,366.933z M392.533,366.933
		c0-9.429,7.637-17.067,17.067-17.067c9.429,0,17.067,7.637,17.067,17.067S419.029,384,409.6,384
		C400.171,384,392.533,376.363,392.533,366.933z"/>
	<path style="fill:#3F3F3F;" d="M418.133,409.6h-17.067c-23.552,0.026-42.641,19.115-42.667,42.667V512h102.4v-59.733
		C460.774,428.715,441.685,409.626,418.133,409.6z M443.733,494.933h-68.267v-42.667c0-14.14,11.46-25.6,25.6-25.6h17.067
		c14.14,0,25.6,11.46,25.6,25.6V494.933z"/>
	<path style="fill:#3F3F3F;" d="M332.8,366.933c0-18.85-15.283-34.133-34.133-34.133s-34.133,15.283-34.133,34.133
		s15.283,34.133,34.133,34.133S332.8,385.783,332.8,366.933z M281.6,366.933c0-9.429,7.637-17.067,17.067-17.067
		s17.067,7.637,17.067,17.067S308.096,384,298.667,384S281.6,376.363,281.6,366.933z"/>
	<path style="fill:#3F3F3F;" d="M307.201,409.6h-17.067c-23.552,0.026-42.641,19.115-42.667,42.667V512h102.4v-59.733
		C349.841,428.715,330.753,409.626,307.201,409.6z M332.8,494.933h-68.267v-42.667c0-14.14,11.46-25.6,25.6-25.6h17.067
		c14.14,0,25.6,11.46,25.6,25.6L332.8,494.933L332.8,494.933z"/>
	<path style="fill:#3F3F3F;" d="M145.067,366.933c0,18.85,15.283,34.133,34.133,34.133s34.133-15.283,34.133-34.133
		S198.05,332.8,179.2,332.8S145.067,348.083,145.067,366.933z M179.2,349.867c9.429,0,17.067,7.637,17.067,17.067
		S188.629,384,179.2,384s-17.067-7.637-17.067-17.067S169.771,349.867,179.2,349.867z"/>
	<path style="fill:#3F3F3F;" d="M187.733,409.6h-17.067c-23.552,0.026-42.641,19.115-42.667,42.667V512h102.4v-59.733
		C230.374,428.715,211.285,409.626,187.733,409.6z M213.333,494.933h-68.267v-42.667c0-14.14,11.46-25.6,25.6-25.6h17.067
		c14.14,0,25.6,11.46,25.6,25.6L213.333,494.933L213.333,494.933z"/>
	<path style="fill:#3F3F3F;" d="M34.133,366.933c0,18.85,15.283,34.133,34.133,34.133s34.133-15.283,34.133-34.133
		S87.117,332.8,68.267,332.8S34.133,348.083,34.133,366.933z M85.333,366.933c0,9.429-7.637,17.067-17.067,17.067
		c-9.43,0-17.066-7.637-17.066-17.067s7.637-17.067,17.067-17.067S85.333,357.504,85.333,366.933z"/>
	<path style="fill:#3F3F3F;" d="M76.8,409.6H59.733c-23.552,0.026-42.641,19.115-42.667,42.667V512h102.4v-59.733
		C119.441,428.715,100.352,409.626,76.8,409.6z M102.4,494.933H34.133v-42.667c0-14.14,11.46-25.6,25.6-25.6H76.8
		c14.14,0,25.6,11.46,25.6,25.6V494.933z"/>
	<path style="fill:#3F3F3F;" d="M162.133,187.733h102.4v-51.2H68.267C44.715,136.559,25.626,155.648,25.6,179.2v93.867h136.533
		L162.133,187.733L162.133,187.733z M145.067,256h-102.4v-76.8c0-14.14,11.46-25.6,25.6-25.6h179.2v17.067h-102.4L145.067,256
		L145.067,256z"/>
	<polygon style="fill:#3F3F3F;" points="187.733,0 187.733,119.467 204.8,119.467 204.8,17.067 477.867,17.067 477.867,238.933 
		204.8,238.933 204.8,204.8 187.733,204.8 187.733,256 494.934,256 494.934,0 	"/>
	<path style="fill:#3F3F3F;" d="M460.8,85.333c0-28.279-22.921-51.2-51.2-51.2c-28.279,0-51.2,22.921-51.2,51.2
		s22.921,51.2,51.2,51.2C437.862,136.508,460.774,113.596,460.8,85.333z M442.522,76.8h-24.388V52.412
		C430.08,55.518,439.415,64.853,442.522,76.8z M409.6,119.467c-18.816,0.026-34.082-15.206-34.108-34.022
		c-0.017-15.556,10.505-29.158,25.574-33.033v41.455h41.455C438.639,108.894,425.115,119.407,409.6,119.467z"/>
	<rect x="238.93" y="34.13" style="fill:#3F3F3F;" width="17.07" height="17.07"/>
	<rect x="273.07" y="34.13" style="fill:#3F3F3F;" width="68.27" height="17.07"/>
	<rect x="238.93" y="68.27" style="fill:#3F3F3F;" width="102.4" height="17.07"/>
	<rect x="324.27" y="204.8" style="fill:#3F3F3F;" width="17.07" height="17.07"/>
	<rect x="349.87" y="187.73" style="fill:#3F3F3F;" width="17.07" height="34.13"/>
	<rect x="375.47" y="170.67" style="fill:#3F3F3F;" width="17.07" height="51.2"/>
	<rect x="401.07" y="187.73" style="fill:#3F3F3F;" width="17.07" height="34.13"/>
	<rect x="426.671" y="153.6" style="fill:#3F3F3F;" width="17.07" height="68.27"/>
</g>
<g>
</g>
<g>
</g>
<g>
</g>
<g>
</g>
<g>
</g>
<g>
</g>
<g>
</g>
<g>
</g>
<g>
</g>
<g>
</g>
<g>
</g>
<g>
</g>
<g>
</g>
<g>
</g>
<g>
</g>
</svg>
